<svg width="189" height="189" xmlns="http://www.w3.org/2000/svg" xmlns:xlink="http://www.w3.org/1999/xlink" overflow="hidden"><g><rect x="0" y="0" width="189" height="189" fill="#FFFFFF"/><text font-family="Calibri,Calibri_MSFontService,sans-serif" font-weight="400" font-size="2" transform="translate(91 186)">OFFICIAL</text><rect x="13.5001" y="8.50005" width="115" height="173" stroke="#000000" stroke-width="3" stroke-miterlimit="8" fill="#FFFFFF"/><rect x="19" y="15" width="2" height="12" fill="#147E42"/><rect x="24" y="24" width="11" height="3"/><rect x="24" y="21" width="11" height="2"/><path d="M24 17.5C24 16.1193 25.1193 15 26.5 15 27.8807 15 29 16.1193 29 17.5 29 18.8807 27.8807 20 26.5 20 25.1193 20 24 18.8807 24 17.5Z" fill-rule="evenodd"/><rect x="82" y="15" width="39" height="3"/><rect x="82" y="19" width="39" height="3"/><rect x="91" y="24" width="30" height="3"/><rect x="19.5001" y="33.5001" width="102" height="41" stroke="#BFD9D5" stroke-width="3" stroke-miterlimit="8" fill="#F7FCF5"/><rect x="19.5001" y="80.5001" width="102" height="74" stroke="#BFD9D5" stroke-width="3" stroke-miterlimit="8" fill="#F7FCF5"/><rect x="73" y="159" width="49" height="3"/><rect x="73" y="163" width="49" height="4"/><rect x="73" y="168" width="49" height="3"/><rect x="73" y="172" width="49" height="3"/><rect x="19" y="159" width="48" height="3"/><rect x="19" y="163" width="48" height="4"/><rect x="19" y="168" width="48" height="3"/><rect x="19" y="172" width="48" height="3"/><rect x="24.5001" y="63.5001" width="4" height="3" stroke="#000000" stroke-width="0.666667" stroke-miterlimit="8" fill="#FFFFFF"/><rect x="30" y="63" width="14" height="3"/><rect x="24.5001" y="67.5001" width="4" height="4" stroke="#000000" stroke-width="0.666667" stroke-miterlimit="8" fill="#FFFFFF"/><rect x="30.5001" y="67.5001" width="3" height="4" stroke="#000000" stroke-width="0.666667" stroke-miterlimit="8" fill="#FFFFFF"/><rect x="35.5001" y="67.5001" width="9" height="4" stroke="#000000" stroke-width="0.666667" stroke-miterlimit="8" fill="#FFFFFF"/><path d="M109.776 158.009 29.0886 66.8815 148.024 92.7483Z" stroke="#000000" stroke-width="3" stroke-miterlimit="8" fill="#AAED92" fill-rule="evenodd"/><path d="M94.5001 127.5C94.5001 105.409 112.856 87.5001 135.5 87.5001 158.144 87.5001 176.5 105.409 176.5 127.5 176.5 149.591 158.144 167.5 135.5 167.5 112.856 167.5 94.5001 149.591 94.5001 127.5Z" stroke="#000000" stroke-width="3" stroke-miterlimit="8" fill="#F0FAEB" fill-rule="evenodd"/><rect x="108.5" y="110.5" width="54" height="33" stroke="#000000" stroke-width="1.33333" stroke-miterlimit="8" fill="#FFFFFF"/><text font-family="Arial,Arial_MSFontService,sans-serif" font-weight="700" font-size="22" transform="translate(140.173 135)">4</text></g></svg>